<?xml version="1.0" standalone="no"?>
<!DOCTYPE svg PUBLIC "-//W3C//DTD SVG 20010904//EN"
 "http://www.w3.org/TR/2001/REC-SVG-20010904/DTD/svg10.dtd">
<svg version="1.0" xmlns="http://www.w3.org/2000/svg"
 width="358.000000pt" height="334.000000pt" viewBox="0 0 358.000000 334.000000"
 preserveAspectRatio="xMidYMid meet">

<g transform="translate(0.000000,334.000000) scale(0.100000,-0.100000)"
fill="#000000" stroke="none">
<path d="M920 3143 c-201 -36 -383 -170 -469 -344 -75 -154 -72 -98 -69 -1120
l3 -914 22 -65 c68 -198 227 -355 423 -418 l85 -27 915 0 915 0 82 28 c202 68
359 228 422 430 l26 82 0 900 0 900 -23 80 c-61 211 -220 375 -436 449 -60 20
-77 20 -966 22 -498 1 -916 0 -930 -3z m582 -710 c50 -20 116 -96 131 -150
l11 -43 58 0 c67 0 121 -19 161 -58 64 -60 62 -41 67 -572 5 -482 5 -485 28
-521 49 -80 154 -91 221 -25 l36 36 5 598 c5 587 5 598 27 637 69 130 234 159
341 61 57 -51 57 -49 62 -481 l5 -400 25 -43 c28 -50 72 -80 131 -90 75 -13
83 -72 9 -72 -81 0 -161 51 -206 132 l-29 53 -5 400 c-4 304 -8 406 -18 423
-35 60 -145 83 -203 41 -66 -47 -63 -23 -69 -679 l-5 -595 -32 -47 c-46 -65
-104 -92 -187 -86 -78 5 -134 39 -174 107 l-27 46 -5 492 -5 491 -25 27 c-37
40 -73 55 -128 55 -57 0 -62 -7 -62 -96 0 -55 -31 -298 -54 -429 -31 -169
-138 -627 -158 -671 -13 -27 -39 -32 -58 -9 -16 20 -122 448 -154 625 -34 188
-66 428 -66 495 0 90 10 85 -181 85 -149 0 -169 2 -178 17 -6 11 -6 24 0 35 9
16 27 18 182 18 l173 0 13 44 c23 80 95 144 186 167 38 10 108 2 157 -18z"/>
<path d="M1337 2292 c-15 -9 -30 -25 -33 -34 -4 -15 -17 -18 -79 -18 -76 0
-85 -5 -85 -51 0 -17 8 -19 79 -19 68 0 81 -3 85 -18 3 -10 19 -25 35 -35 74
-44 161 4 161 88 0 85 -90 133 -163 87z"/>
</g>
</svg>
