<?xml version="1.0" standalone="no"?>
<!DOCTYPE svg PUBLIC "-//W3C//DTD SVG 20010904//EN"
 "http://www.w3.org/TR/2001/REC-SVG-20010904/DTD/svg10.dtd">
<svg version="1.0" xmlns="http://www.w3.org/2000/svg"
 width="900.000000pt" height="909.000000pt" viewBox="0 0 900.000000 909.000000"
 preserveAspectRatio="xMidYMid meet">
<metadata>
Created by potrace 1.10, written by Peter Selinger 2001-2011
</metadata>
<g transform="translate(0.000000,909.000000) scale(0.100000,-0.100000)"
fill="#000000" stroke="none">
<path d="M1730 8701 c-47 -9 -110 -30 -141 -45 -71 -35 -179 -143 -214 -213
-57 -115 -55 -14 -55 -2201 0 -2207 -3 -2103 58 -2217 33 -60 134 -164 195
-198 118 -65 50 -61 1052 -67 l910 -5 -3 -25 c-1 -14 -14 -54 -28 -90 -56
-142 -94 -239 -128 -334 -52 -139 -46 -132 -113 -138 -67 -7 -184 -56 -226
-96 -55 -52 -89 -103 -113 -169 -34 -95 -32 -170 7 -272 38 -95 98 -159 199
-212 l65 -34 1285 0 1285 0 67 33 c88 43 152 106 191 190 27 57 32 80 35 161
4 90 3 96 -32 165 -38 77 -105 155 -157 182 -55 28 -141 54 -179 54 -42 0 -49
6 -74 70 -11 25 -25 59 -32 77 -8 17 -14 36 -14 42 0 6 -5 19 -10 29 -17 29
-130 338 -130 355 0 15 79 16 908 20 874 3 909 4 964 23 79 27 146 73 212 145
63 67 84 105 112 194 18 58 19 133 19 2115 0 1968 -1 2058 -18 2115 -38 121
-128 233 -238 294 -33 18 -94 39 -150 51 -93 19 -135 20 -2759 19 -2482 -1
-2671 -2 -2750 -18z m5515 -206 c104 -36 173 -114 193 -219 9 -44 12 -548 12
-1887 l0 -1829 -22 -5 c-13 -3 -1346 -4 -2963 -3 l-2940 3 0 1875 0 1875 31
55 c33 59 98 113 162 136 30 11 535 13 2759 14 2433 0 2727 -2 2768 -15z m203
-4179 c13 -158 -82 -303 -223 -340 -60 -15 -5371 -21 -5445 -6 -107 23 -160
56 -215 135 -35 52 -37 59 -42 155 l-6 100 2964 -2 2964 -3 3 -39z m-2215
-631 c16 -38 33 -81 37 -95 5 -14 20 -55 34 -92 44 -116 72 -189 120 -316 77
-207 72 -202 219 -213 93 -7 101 -10 143 -44 56 -46 74 -81 74 -144 0 -65 -13
-98 -57 -143 -27 -27 -50 -40 -87 -48 -36 -8 -414 -10 -1261 -8 -1370 3 -1255
-4 -1317 86 -27 39 -31 53 -30 113 0 77 13 101 83 152 35 26 51 31 117 34 106
5 150 20 168 56 14 26 93 227 114 287 5 14 17 48 28 75 17 43 108 284 133 353
l9 22 721 -2 722 -3 30 -70z"/>
<path d="M2655 8211 c-27 -4 -65 -15 -83 -24 -49 -27 -111 -93 -136 -146 l-21
-46 -3 -1515 c-1 -833 0 -1530 3 -1548 8 -41 71 -87 107 -77 13 4 301 284 640
623 540 539 619 614 637 606 11 -5 51 -39 88 -75 37 -36 93 -87 123 -114 30
-26 84 -75 120 -109 36 -34 112 -104 170 -156 58 -52 141 -128 185 -170 44
-41 125 -115 180 -165 55 -49 129 -117 165 -151 191 -178 206 -188 260 -179
32 5 46 14 61 39 45 74 36 84 -321 402 -30 27 -87 80 -126 117 -40 38 -85 79
-100 92 -14 12 -25 27 -23 33 2 6 76 88 164 183 88 95 193 209 234 253 89 98
103 106 136 80 31 -25 267 -235 280 -249 6 -7 59 -54 118 -106 59 -52 147
-129 195 -172 201 -180 211 -187 263 -187 60 0 89 31 89 93 0 37 -6 47 -67
107 -38 36 -102 94 -143 130 -41 35 -111 95 -154 134 -369 330 -507 452 -553
487 -71 53 -105 39 -234 -103 -52 -56 -148 -160 -214 -232 -66 -71 -149 -162
-184 -203 -41 -47 -71 -73 -82 -71 -17 3 -46 29 -389 348 -96 89 -190 169
-209 177 -69 30 -57 40 -646 -548 -303 -302 -555 -549 -562 -549 -6 0 -14 7
-17 16 -3 9 -6 501 -6 1094 0 1057 0 1080 19 1090 13 6 193 10 515 10 l495 0
25 25 c48 48 44 110 -8 149 -27 20 -40 21 -532 24 l-504 3 -6 25 c-3 13 -5 87
-2 163 2 103 7 143 18 156 39 47 -29 45 1865 45 1946 0 1843 3 1865 -55 13
-34 13 -322 0 -330 -5 -3 -218 -6 -473 -5 -504 0 -554 -4 -582 -47 -26 -40
-22 -90 11 -124 l28 -29 497 0 c274 0 504 -3 513 -6 14 -6 16 -125 16 -1245 0
-925 3 -1245 12 -1264 6 -14 26 -35 44 -46 40 -24 72 -18 114 21 l30 28 0
1509 c0 1659 3 1563 -63 1663 -47 70 -107 109 -189 121 -71 10 -3574 10 -3653
0z"/>
<path d="M4385 7611 c-91 -15 -180 -64 -251 -138 -114 -119 -161 -264 -135
-420 18 -112 60 -193 143 -273 82 -80 152 -116 259 -135 157 -28 314 23 425
137 78 80 106 125 129 212 32 123 18 261 -37 370 -25 50 -120 150 -172 183
-88 56 -241 83 -361 64z m180 -203 c140 -35 235 -194 201 -338 -28 -118 -104
-194 -223 -223 -55 -14 -68 -14 -125 1 -80 20 -127 49 -171 107 -126 164 -34
410 170 459 58 14 71 13 148 -6z"/>
<path d="M3941 3156 c-48 -27 -65 -92 -35 -135 35 -50 47 -51 571 -51 299 0
502 4 524 10 72 20 93 107 40 161 l-29 29 -524 0 c-415 -1 -528 -3 -547 -14z"/>
<path d="M6506 1934 c-3 -9 -6 -98 -6 -200 0 -206 7 -190 -80 -196 l-35 -3 -5
-115 c-3 -63 -4 -120 -2 -127 2 -7 27 -13 60 -15 l57 -3 6 -190 c6 -217 18
-270 78 -362 65 -99 150 -164 261 -200 56 -18 297 -30 312 -15 11 11 14 233 3
251 -4 7 -48 11 -116 11 -150 0 -205 25 -250 113 -17 33 -19 56 -17 215 l3
177 193 3 c143 2 192 6 193 15 3 64 -1 228 -6 236 -4 7 -69 11 -180 11 -95 0
-180 3 -189 6 -14 5 -16 32 -16 193 0 132 -4 191 -12 199 -8 8 -51 12 -129 12
-97 0 -118 -3 -123 -16z"/>
<path d="M3248 1889 c-17 -9 -18 -53 -18 -693 0 -614 2 -684 16 -690 20 -8
228 -8 248 0 14 6 16 76 16 690 0 665 -1 684 -19 694 -25 13 -220 13 -243 -1z"/>
<path d="M2310 1877 c-101 -23 -208 -85 -278 -160 -55 -61 -84 -109 -118 -197
l-29 -75 -3 -460 c-3 -429 -2 -460 14 -472 24 -17 235 -18 252 -1 8 8 12 52
12 134 0 102 3 123 16 128 9 3 130 6 269 6 192 0 256 -3 262 -12 4 -7 10 -69
13 -138 l5 -125 110 -3 c61 -2 120 0 133 3 l22 5 0 444 c0 409 -2 449 -20 520
-11 43 -34 103 -52 135 -35 62 -147 178 -193 201 -16 8 -36 19 -43 24 -61 44
-264 68 -372 43z m235 -288 c69 -31 130 -96 150 -161 22 -68 33 -315 16 -346
-12 -22 -15 -22 -269 -22 -141 0 -263 4 -270 9 -10 6 -13 45 -10 177 3 144 6
175 23 209 26 53 84 109 137 133 61 28 161 29 223 1z"/>
<path d="M4740 1880 c-157 -33 -314 -160 -382 -310 -52 -114 -51 -107 -56
-581 -3 -323 -1 -452 7 -468 11 -20 19 -21 129 -21 79 0 122 4 130 12 8 8 12
51 12 128 0 77 4 120 12 128 17 17 519 17 536 0 8 -8 12 -52 12 -134 0 -102 3
-123 16 -128 26 -10 224 -7 245 4 18 10 19 25 19 413 0 416 -6 495 -41 599
-51 154 -185 286 -344 342 -59 21 -228 30 -295 16z m238 -294 c80 -41 132
-109 151 -194 15 -72 15 -304 -1 -320 -14 -14 -514 -17 -537 -3 -10 7 -12 42
-9 172 4 154 5 167 30 214 30 58 76 104 133 133 60 31 170 30 233 -2z"/>
<path d="M5637 1533 c-4 -3 -7 -235 -7 -514 0 -453 2 -508 16 -513 22 -9 217
-7 231 2 8 5 13 93 15 317 3 338 4 340 65 396 50 46 101 59 239 59 l125 0 -3
128 -3 127 -120 3 c-66 2 -149 -2 -183 -8 -67 -11 -181 -60 -202 -85 -21 -25
-36 -17 -79 40 -29 39 -48 55 -65 55 -12 0 -26 -3 -29 -7z"/>
</g>
</svg>
